<svg id="Layer_1" xmlns="http://www.w3.org/2000/svg" viewBox="-232 717.9 378 77"><style>.st0{fill:#FFFFFF;}</style><path class="st0" d="M-209.3 760.7h-20v-42.1h19.5c8.6 0 13.9 4.3 13.9 10.9v.1c0 4.8-2.5 7.4-5.5 9.1 4.9 1.9 7.9 4.7 7.9 10.4v.1c0 7.6-6.3 11.5-15.8 11.5zm4.2-29.7c0-2.8-2.2-4.3-6.1-4.3h-9.1v8.9h8.5c4.1 0 6.7-1.3 6.7-4.4v-.2zm2.4 16.8c0-2.8-2.1-4.6-6.9-4.6h-10.7v9.3h11c4.1 0 6.6-1.4 6.6-4.7 0 .2 0 0 0 0zM-186 760.7v-42.1h9.3v33.7h21v8.4H-186zM-116.8 760.7l-3.8-9.4h-17.8l-3.8 9.4h-9.4l18-42.4h8.5l18.1 42.4h-9.8zm-12.8-31.3l-5.6 13.7h11.2l-5.6-13.7zM-84.4 761.4c-12.4 0-21.6-9.6-21.6-21.6v-.1c0-12 9-21.8 21.9-21.8 7.9 0 12.7 2.6 16.6 6.5l-5.9 6.8c-3.3-2.9-6.6-4.8-10.8-4.8-7.1 0-12.2 5.9-12.2 13.1v.1c0 7.2 5 13.2 12.2 13.2 4.8 0 7.8-1.9 11.1-4.9l5.9 6c-4.3 4.6-9.1 7.5-17.2 7.5zM-33.8 760.7l-13.1-17.9-4.9 5.1v12.9H-61v-42.1h9.3v18.4l17.1-18.4h11.2l-17.1 17.9 17.9 24.2-11.2-.1zM21 760.7H1v-42.1h19.6c8.6 0 13.9 4.3 13.9 10.9v.1c0 4.8-2.5 7.4-5.5 9.1 4.9 1.9 7.9 4.7 7.9 10.4v.1c-.1 7.6-6.4 11.5-15.9 11.5zm4.2-29.7c0-2.8-2.2-4.3-6.1-4.3H10v8.9h8.5c4.1 0 6.7-1.3 6.7-4.4v-.2zm2.4 16.8c0-2.8-2.1-4.6-6.9-4.6H10v9.3h11c4.1 0 6.6-1.4 6.6-4.7zM44.4 760.7v-42.1h9.3v42.1h-9.3zM89.1 760.7l-9-13.5h-7.3v13.5h-9.3v-42.1h19.3c9.9 0 15.9 5.2 15.9 13.9v.1c0 6.8-3.7 11.1-9 13l10.3 15-10.9.1zm.2-27.8c0-4-2.8-6-7.3-6h-9.2V739h9.4c4.5 0 7.1-2.4 7.1-6.1zM123.1 760.7h-16.4v-42.1h16.4c13.2 0 22.4 9.1 22.4 20.9v.1c0 11.8-9.1 21.1-22.4 21.1zm12.7-21.1c0-7.5-5.1-12.7-12.7-12.7H116v25.4h7.2c7.6 0 12.7-5.1 12.6-12.7zM-96.1 794.9c-4.2 0-7.4-3.3-7.4-7.6 0-4.2 3.1-7.6 7.4-7.6 2.7 0 4.3.9 5.7 2.3l-1.1 1.2c-1.2-1.2-2.6-2-4.6-2-3.3 0-5.7 2.6-5.7 6.1 0 3.4 2.5 6.1 5.7 6.1 2 0 3.3-.8 4.8-2.1l1.1 1.1c-1.5 1.5-3.2 2.5-5.9 2.5zM-85.7 779.9h1.7v13.2h8.3v1.5h-9.9l-.1-14.7zM-65.3 794.9c-4.5 0-7.5-3.5-7.5-7.6s3-7.6 7.5-7.6 7.5 3.5 7.5 7.6c0 4-3 7.6-7.5 7.6zm0-13.7c-3.4 0-5.8 2.7-5.8 6.1 0 3.4 2.4 6.1 5.8 6.1s5.8-2.7 5.8-6.1c0-3.3-2.4-6.1-5.8-6.1zM-48.2 794.7h-1.7v-13.2h-4.9v-1.6h11.6v1.5h-4.9l-.1 13.3zM-37.1 788v6.6h-1.7v-14.7h1.7v6.5h8.5v-6.5h1.6v14.7h-1.7V788h-8.4zM-19.3 779.9v14.7H-21v-14.7h1.7zM-2.6 779.9H-1v14.7h-1.3l-9.5-12.1v12.1h-1.6v-14.7h1.6l9.3 11.8-.1-11.8zM11.6 794.9c-4.6 0-7.5-3.4-7.5-7.6 0-4 3-7.6 7.4-7.6 2.5 0 4 .7 5.5 2l-1.1 1.3c-1.1-1-2.4-1.7-4.5-1.7-3.3 0-5.6 2.8-5.6 6.1 0 3.5 2.3 6.1 5.8 6.1 1.7 0 3.2-.7 4.2-1.5v-3.6h-4.5v-1.5h6.1v5.9c-1.3 1.1-3.3 2.1-5.8 2.1z"/><g><path class="st0" d="M-232 786.5h112.7v1.7H-232zM33.4 786.5H146v1.7H33.4z"/></g></svg>